<svg width="1024" height="1024" viewBox="0 0 1024 1024" fill="none" xmlns="http://www.w3.org/2000/svg">
  <rect width="1024" height="1024" fill="#07111F"/>
  <path d="M128 162C196 92 304 56 452 56C658 56 812 142 906 314C967 426 990 570 974 746C962 880 870 968 736 968H128V162Z" fill="#0C1B2E"/>
  <path d="M94 736L735 95C874 176 954 322 973 516L493 996H120C53 996 28 949 64 892L94 736Z" fill="#0EA5E9"/>
  <path d="M247 111H684C737 111 780 154 780 207V818C780 871 737 914 684 914H247C194 914 151 871 151 818V207C151 154 194 111 247 111Z" fill="#F8FAFC"/>
  <path d="M623 111H684C737 111 780 154 780 207V272H691C653 272 623 242 623 204V111Z" fill="#DCEAFE"/>
  <path d="M691 272H780L623 111V204C623 242 653 272 691 272Z" fill="#93C5FD"/>
  <path d="M290 265C290 244 307 227 328 227H536C629 227 704 302 704 395C704 449 678 497 638 527C693 554 731 611 731 676C731 769 656 844 563 844H328C307 844 290 827 290 806V265Z" fill="#0F172A"/>
  <path d="M388 333H524C559 333 588 362 588 397C588 432 559 461 524 461H388V333Z" fill="#F8FAFC"/>
  <path d="M388 600H552C591 600 622 631 622 670C622 709 591 740 552 740H388V600Z" fill="#F8FAFC"/>
  <rect x="223" y="227" width="110" height="617" rx="55" fill="#2563EB"/>
  <rect x="679" y="421" width="206" height="74" rx="37" fill="#38BDF8"/>
  <rect x="745" y="347" width="74" height="222" rx="37" fill="#38BDF8"/>
  <circle cx="774" cy="765" r="74" fill="#FACC15"/>
  <path d="M774 716L789 748L824 753L799 778L805 813L774 796L743 813L749 778L724 753L759 748L774 716Z" fill="#07111F"/>
</svg>
