<svg width="1024" height="1024" viewBox="0 0 1024 1024" fill="none" xmlns="http://www.w3.org/2000/svg">
  <rect width="1024" height="1024" rx="224" fill="#0B1220"/>
  <path d="M146 742C286 838 448 885 633 884C736 883 816 861 878 820V1024H0V679C42 697 91 718 146 742Z" fill="#2563EB"/>
  <path d="M160 170C238 92 348 48 500 48C673 48 807 105 902 219C982 315 1021 438 1024 587V0H0V361C32 290 85 226 160 170Z" fill="#38BDF8" opacity="0.22"/>
  <rect x="226" y="156" width="572" height="712" rx="116" fill="#F8FAFC"/>
  <path d="M642 156H682C746.065 156 798 207.935 798 272V312H710C672.445 312 642 281.555 642 244V156Z" fill="#DCEAFE"/>
  <path d="M710 312H798L642 156V244C642 281.555 672.445 312 710 312Z" fill="#93C5FD"/>
  <rect x="294" y="260" width="104" height="504" rx="52" fill="#2563EB"/>
  <path d="M398 260H550C629.529 260 694 324.471 694 404C694 462.171 659.494 512.291 609.844 535C671.154 552.377 716 608.754 716 675.5C716 754.201 652.201 818 573.5 818H398V260Z" fill="#2563EB"/>
  <rect x="418" y="344" width="152" height="112" rx="56" fill="#F8FAFC"/>
  <rect x="418" y="594" width="184" height="124" rx="62" fill="#F8FAFC"/>
  <rect x="718" y="448" width="68" height="244" rx="34" fill="#38BDF8"/>
  <rect x="652" y="558" width="200" height="68" rx="34" fill="#38BDF8"/>
  <circle cx="754" cy="754" r="44" fill="#FACC15"/>
  <path d="M754 725L762.96 744.04L784 747.25L768.82 762.07L772.41 783L754 773.15L735.59 783L739.18 762.07L724 747.25L745.04 744.04L754 725Z" fill="#0B1220"/>
</svg>
